<?xml version="1.0" encoding="UTF-8"?><svg id="Layer_1" xmlns="http://www.w3.org/2000/svg" viewBox="0 0 48 48"><path d="M31.66,25c-.16.36-.08.82.19,1.11s.72.4,1.09.27c.08-.03.15-.06.22-.11.2-.14.32-.38.39-.62.1-.33.09-.73-.16-.97-.51-.49-1.44-.32-1.72.32Z" fill="none" stroke="#000" stroke-linecap="round" stroke-miterlimit="10" stroke-width=".71"/><path d="M28.39,30.19c.21-.62.41-1.25.62-1.87.12-.36.26-.75.58-.94.27-.17.62-.15.94-.14.38.02.75.04,1.13.06.11,0,.23.02.3.11.07.1.04.24,0,.35-.32.91-.64,1.83-.96,2.74-1.23-.08-2.47.52-3.18,1.53s-.85,2.38-.36,3.51c.49,1.13,1.59,1.96,2.81,2.13.59.08,1.2.02,1.79-.08.32-.05.65-.11.94-.26.84-.44,1.13-1.47,1.34-2.4.07-.29.13-.58.13-.87,0-.47-.17-.93-.4-1.34-.64-1.15-1.82-1.99-3.13-2.22" fill="none" stroke="#000" stroke-linecap="round" stroke-miterlimit="10" stroke-width=".71"/><path d="M33.77,32.13c.55-.11,1.13-.09,1.68.04.12.03.26.07.34.17.1.11.1.27.11.42.04,1.78-.03,2.15-.37,3.9" fill="none" stroke="#000" stroke-linecap="round" stroke-miterlimit="10" stroke-width=".71"/><path d="M5.6,9.85c.02-.65.07-1.37.55-1.82.41-.38,1.01-.45,1.57-.48,10.14-.68,20.33.9,30.48.3,1.21-.07,2.59-.11,3.42.78.77.83.7,2.11.61,3.25-.64,8.64.99,17.36.05,25.97-.1.95-.32,2.03-1.15,2.5-.47.27-1.03.27-1.57.27-10.42,0-20.84,0-31.26,0-.62,0-1.3-.02-1.79-.41-1.08-.87-.81-3.28-.85-4.51-.07-2.08-.13-4.16-.17-6.24-.08-4.16-.09-8.33-.04-12.49.03-2.37.08-4.75.16-7.12Z" fill="none" stroke="#000" stroke-miterlimit="10" stroke-width=".71"/><path d="M17.76,33.92c0-5.55-.02-11.11-.2-16.66-.02-.65-.05-1.31.07-1.95.03-.16.07-.33.18-.44.16-.17.43-.19.67-.2,2.03-.08,4.05-.09,6.08-.05.94.02,1.9.06,2.75.47,1.71.83,2.42,2.97,2.25,4.86-.04.47-.14.96-.4,1.36-.27.41-.68.69-1.11.93-3.12,1.74-6.93,1.35-10.47.92" fill="none" stroke="#000" stroke-miterlimit="10" stroke-width=".71"/></svg>