<?xml version="1.0" encoding="UTF-8"?><svg id="Layer_1" xmlns="http://www.w3.org/2000/svg" viewBox="0 0 48 48"><path d="M15.17,22.22c-.17,0-.35,0-.48.12-.33.28.07.84.51.89s.87-.14,1.29-.03c.51.12.83.64.92,1.16s.01,1.04.01,1.56c-.01,2.14,1.41,4.22,3.4,4.99.23.09.47.16.63.34.34.35.27.95.57,1.34.39.5,1.34.26,1.46-.35.04-.23,0-.5.11-.7.16-.26.52-.3.82-.3,3.35-.07,6.7-.14,10.05-.2.66-.01,1.44.05,1.76.62.29.54.07,1.39.61,1.67.48.24,1-.27,1.18-.77s.23-1.1.65-1.44c.36-.29.87-.28,1.3-.44.75-.28,1.21-1.03,1.53-1.76.77-1.71,1.15-3.6,1.1-5.48.73-.09,1.47-.18,2.2-.27.17-.02.36-.05.47-.19.16-.2.04-.51-.18-.64s-.48-.14-.73-.14c-9.75,0-19.46-.06-29.21.04Z" fill="none" stroke="#000" stroke-miterlimit="10" stroke-width=".71"/><path d="M36.04,7.03c.34-.53,1.08-.62,1.71-.65.46-.02.95-.05,1.38.13.88.36,1.24,1.4,1.41,2.34.31,1.65.34,3.34.37,5.03.1,5.11.06,3.18.16,8.29" fill="none" stroke="#000" stroke-linecap="round" stroke-miterlimit="10" stroke-width=".71"/><path d="M34.88,7.17c-.18-.06-.34-.16-.52-.24-.61-.26-1.3-.17-1.95-.07-.15.02-.31.05-.42.16-.15.15-.12.41,0,.59s.31.29.49.39c1.55.92,3.01,1.98,4.37,3.16.11.09.28.19.37.08.04-.04.05-.1.05-.15.1-.71.02-1.45-.22-2.13-.08-.23-.18-.46-.36-.62-.12-.11-.27-.18-.37-.3-.22-.23-.14-.66-.38-.81-.2-.12-.79.04-1.06-.06Z" stroke="#000" stroke-linecap="round" stroke-miterlimit="10" stroke-width=".71"/><path d="M31.35,8.49l-.7.53" fill="none" stroke="#000" stroke-linecap="round" stroke-miterlimit="10" stroke-width=".71"/><path d="M29.49,10.05l-.69.61" fill="none" stroke="#000" stroke-linecap="round" stroke-miterlimit="10" stroke-width=".71"/><path d="M27.78,11.75c-.35.23-.66.52-.93.85" fill="none" stroke="#000" stroke-linecap="round" stroke-miterlimit="10" stroke-width=".71"/><path d="M31.81,9.78l-.67.62" fill="none" stroke="#000" stroke-linecap="round" stroke-miterlimit="10" stroke-width=".71"/><path d="M30.05,11.57c-.16.22-.35.43-.56.6" fill="none" stroke="#000" stroke-linecap="round" stroke-miterlimit="10" stroke-width=".71"/><path d="M28.25,13.8l-.61.62" fill="none" stroke="#000" stroke-linecap="round" stroke-miterlimit="10" stroke-width=".71"/><path d="M33.04,9.98c-.19.18-.34.39-.47.62" fill="none" stroke="#000" stroke-linecap="round" stroke-miterlimit="10" stroke-width=".71"/><path d="M31.89,11.97l-.56.61" fill="none" stroke="#000" stroke-linecap="round" stroke-miterlimit="10" stroke-width=".71"/><path d="M30.39,13.89l-.57.66" fill="none" stroke="#000" stroke-linecap="round" stroke-miterlimit="10" stroke-width=".71"/><path d="M34.39,10.93l-.6.7" fill="none" stroke="#000" stroke-linecap="round" stroke-miterlimit="10" stroke-width=".71"/><path d="M33.4,12.8l-.47.55" fill="none" stroke="#000" stroke-linecap="round" stroke-miterlimit="10" stroke-width=".71"/><path d="M32.16,14.77l-.34.62" fill="none" stroke="#000" stroke-linecap="round" stroke-miterlimit="10" stroke-width=".71"/><path d="M31.33,16.61l-.14.14" fill="none" stroke="#000" stroke-linecap="round" stroke-miterlimit="10" stroke-width=".71"/><path d="M35.17,12.24l-.21.82" fill="none" stroke="#000" stroke-linecap="round" stroke-miterlimit="10" stroke-width=".71"/><path d="M34.57,14.3l-.14.68" fill="none" stroke="#000" stroke-linecap="round" stroke-miterlimit="10" stroke-width=".71"/><path d="M34.08,16.69l-.2,1.03" fill="none" stroke="#000" stroke-linecap="round" stroke-miterlimit="10" stroke-width=".71"/><path d="M9.22,23.04c-.23.53-.12,1.2.27,1.63s1.05.59,1.6.4c.11-.04.22-.09.32-.16.29-.21.47-.55.57-.9.14-.49.13-1.07-.23-1.43-.74-.72-2.11-.47-2.52.47Z" fill="none" stroke="#000" stroke-linecap="round" stroke-miterlimit="10" stroke-width=".71"/><path d="M4.42,30.64c.3-.91.6-1.83.91-2.74.17-.52.38-1.09.85-1.38.4-.24.9-.23,1.37-.2.55.03,1.1.06,1.66.09.16,0,.34.03.44.16.11.14.05.34,0,.51-.47,1.34-.93,2.68-1.4,4.01-1.8-.11-3.62.76-4.66,2.24-1.03,1.47-1.24,3.49-.52,5.14.72,1.65,2.33,2.88,4.11,3.12.87.12,1.75.02,2.62-.11.47-.07.96-.16,1.38-.39,1.23-.64,1.66-2.16,1.96-3.51.1-.42.19-.84.19-1.27,0-.69-.24-1.36-.58-1.97-.94-1.69-2.67-2.92-4.57-3.25" fill="none" stroke="#000" stroke-linecap="round" stroke-miterlimit="10" stroke-width=".71"/><path d="M12.31,33.48c.81-.15,1.65-.14,2.46.05.18.04.37.1.5.24.14.16.15.4.16.61.05,2.61-.04,3.15-.54,5.71" fill="none" stroke="#000" stroke-linecap="round" stroke-miterlimit="10" stroke-width=".71"/></svg>