<?xml version="1.0" encoding="UTF-8"?><svg id="Layer_1" xmlns="http://www.w3.org/2000/svg" viewBox="0 0 48 48"><path d="M31.32,3.82c.65-1,2.02-1.16,3.21-1.23.87-.05,1.78-.09,2.59.25,1.65.68,2.33,2.63,2.65,4.39.57,3.11.64,6.28.7,9.44.19,9.59.37,19.18.56,28.77" fill="none" stroke="#000" stroke-linecap="round" stroke-miterlimit="10" stroke-width=".71"/><path d="M29.14,4.08c-.34-.12-.64-.31-.97-.45-1.14-.48-2.44-.32-3.66-.14-.28.04-.59.09-.79.3-.28.28-.23.77,0,1.1s.58.54.92.74c2.91,1.73,5.66,3.71,8.21,5.93.2.18.52.35.7.15.07-.08.09-.18.1-.28.18-1.34.04-2.72-.41-4-.15-.43-.35-.86-.68-1.17-.22-.2-.5-.34-.7-.56-.41-.44-.27-1.24-.72-1.52-.37-.23-1.48.07-1.99-.1Z" stroke="#000" stroke-linecap="round" stroke-miterlimit="10" stroke-width=".71"/><path d="M22.51,6.57l-1.31.99" fill="none" stroke="#000" stroke-linecap="round" stroke-miterlimit="10" stroke-width=".71"/><path d="M19.02,9.49l-1.29,1.14" fill="none" stroke="#000" stroke-linecap="round" stroke-miterlimit="10" stroke-width=".71"/><path d="M15.8,12.69c-.66.44-1.25.98-1.74,1.59" fill="none" stroke="#000" stroke-linecap="round" stroke-miterlimit="10" stroke-width=".71"/><path d="M23.39,8.98l-1.27,1.17" fill="none" stroke="#000" stroke-linecap="round" stroke-miterlimit="10" stroke-width=".71"/><path d="M20.08,12.34c-.3.42-.66.8-1.06,1.13" fill="none" stroke="#000" stroke-linecap="round" stroke-miterlimit="10" stroke-width=".71"/><path d="M16.7,16.54l-1.14,1.17" fill="none" stroke="#000" stroke-linecap="round" stroke-miterlimit="10" stroke-width=".71"/><path d="M25.69,9.36c-.35.34-.65.74-.88,1.17" fill="none" stroke="#000" stroke-linecap="round" stroke-miterlimit="10" stroke-width=".71"/><path d="M23.53,13.1l-1.05,1.14" fill="none" stroke="#000" stroke-linecap="round" stroke-miterlimit="10" stroke-width=".71"/><path d="M20.71,16.7c-.36.42-.71.83-1.07,1.25" fill="none" stroke="#000" stroke-linecap="round" stroke-miterlimit="10" stroke-width=".71"/><path d="M28.23,11.13l-1.12,1.31" fill="none" stroke="#000" stroke-linecap="round" stroke-miterlimit="10" stroke-width=".71"/><path d="M26.36,14.65l-.88,1.04" fill="none" stroke="#000" stroke-linecap="round" stroke-miterlimit="10" stroke-width=".71"/><path d="M24.03,18.36l-.64,1.16" fill="none" stroke="#000" stroke-linecap="round" stroke-miterlimit="10" stroke-width=".71"/><path d="M22.47,21.8l-.26.26" fill="none" stroke="#000" stroke-linecap="round" stroke-miterlimit="10" stroke-width=".71"/><path d="M29.69,13.61c-.13.51-.26,1.03-.4,1.54" fill="none" stroke="#000" stroke-linecap="round" stroke-miterlimit="10" stroke-width=".71"/><path d="M28.56,17.46l-.25,1.28" fill="none" stroke="#000" stroke-linecap="round" stroke-miterlimit="10" stroke-width=".71"/><path d="M27.63,21.95c-.13.64-.25,1.28-.38,1.93" fill="none" stroke="#000" stroke-linecap="round" stroke-miterlimit="10" stroke-width=".71"/><path d="M15.13,21.97c-.29.66-.15,1.48.34,2.01s1.3.73,1.98.5c.14-.05.28-.12.4-.2.36-.26.58-.69.7-1.12.17-.6.16-1.33-.29-1.77-.92-.89-2.62-.58-3.13.58Z" fill="none" stroke="#000" stroke-linecap="round" stroke-miterlimit="10" stroke-width=".71"/><path d="M9.19,31.38c.37-1.13.75-2.27,1.12-3.4.21-.65.47-1.35,1.05-1.71.5-.3,1.12-.28,1.7-.25.68.04,1.37.07,2.05.11.2.01.42.03.54.19.13.18.07.43,0,.63-.58,1.66-1.15,3.32-1.73,4.97-2.22-.14-4.49.95-5.77,2.77-1.28,1.82-1.53,4.32-.64,6.37.89,2.04,2.89,3.56,5.1,3.87,1.08.15,2.17.03,3.24-.14.59-.09,1.18-.2,1.71-.48,1.52-.79,2.05-2.67,2.43-4.35.12-.52.24-1.04.24-1.58,0-.86-.3-1.69-.72-2.44-1.17-2.09-3.31-3.61-5.67-4.03" fill="none" stroke="#000" stroke-linecap="round" stroke-miterlimit="10" stroke-width=".71"/><path d="M18.95,34.9c1-.19,2.05-.17,3.05.06.23.05.46.12.61.3.17.2.19.49.19.76.07,3.23-.05,3.9-.67,7.07" fill="none" stroke="#000" stroke-linecap="round" stroke-miterlimit="10" stroke-width=".71"/></svg>