<?xml version="1.0" encoding="UTF-8"?><svg id="Layer_1" xmlns="http://www.w3.org/2000/svg" viewBox="0 0 48 48"><path d="M43.18,22.38c.52,0,1.12.05,1.42.47.2.28.2.65.2.99-.03,2.79-.07,5.59-.1,8.38,0,.45-.02.94-.3,1.3-.4.52-1.16.55-1.82.54-6.1-.12-12.19-.24-18.29-.36-.25,0-.53-.02-.7-.21-.15-.17-.16-.42-.15-.65.06-3.15.12-6.31.18-9.46,0-.28.03-.61.25-.79.18-.15.44-.16.68-.15,6.22.1,12.42-.07,18.64-.07Z" fill="none" stroke="#000" stroke-miterlimit="10" stroke-width=".71"/><path d="M29.71,22.72c-.25-.87-.34-1.79-.26-2.69.04-.41.11-.81.27-1.19.58-1.39,2.19-2.07,3.69-2.26.83-.11,1.7-.1,2.46.25.97.45,1.62,1.43,1.93,2.46s.32,2.12.33,3.2" fill="none" stroke="#000" stroke-miterlimit="10" stroke-width=".71"/><path d="M31.89,12.63c.02.28.07.56.2.8.36.66,1.23.81,1.97.81.29,0,.59-.01.86-.13.27-.11.49-.32.66-.56.51-.72.59-1.72.19-2.5-1.36-2.68-4.09-.89-3.88,1.57Z" fill="none" stroke="#000" stroke-miterlimit="10" stroke-width=".71"/><path d="M11.05,16.11c-.28.63-.15,1.43.32,1.94s1.25.7,1.91.48c.14-.05.27-.11.38-.2.35-.25.56-.66.67-1.07.17-.58.16-1.28-.28-1.7-.88-.85-2.52-.56-3.01.56Z" fill="none" stroke="#000" stroke-linecap="round" stroke-miterlimit="10" stroke-width=".71"/><path d="M5.33,25.17c.36-1.09.72-2.18,1.08-3.27.21-.62.45-1.3,1.01-1.64.48-.29,1.07-.27,1.63-.24.66.03,1.32.07,1.98.1.19,0,.41.03.52.19.13.17.06.41,0,.61-.56,1.6-1.11,3.19-1.67,4.79-2.14-.14-4.32.91-5.55,2.67-1.23,1.76-1.48,4.16-.62,6.13.86,1.97,2.78,3.43,4.9,3.72,1.04.14,2.09.03,3.12-.13.57-.09,1.14-.2,1.65-.46,1.46-.77,1.97-2.57,2.34-4.18.11-.5.23-1.01.23-1.52,0-.82-.29-1.63-.69-2.34-1.13-2.01-3.18-3.48-5.45-3.88" fill="none" stroke="#000" stroke-linecap="round" stroke-miterlimit="10" stroke-width=".71"/><path d="M14.73,28.56c.97-.18,1.97-.16,2.93.06.22.05.45.12.59.29.17.2.18.47.19.73.06,3.11-.05,3.76-.64,6.81" fill="none" stroke="#000" stroke-linecap="round" stroke-miterlimit="10" stroke-width=".71"/></svg>