<?xml version="1.0" encoding="UTF-8"?><svg id="Layer_1" xmlns="http://www.w3.org/2000/svg" viewBox="0 0 48 48"><path d="M28.56,17.13c0,.12-.01.25.02.37.09.32.43.5.75.53,1.24.14,2.13-1.22,2.33-2.45.21-1.23.08-2.57.73-3.63,1.35-2.2,5-1.76,6.56-3.82.12-.16.23-.34.26-.54.06-.44-.27-.84-.65-1.08-1.34-.85-3.1-.35-4.58.23-3.06,1.19-6.03,2.61-8.88,4.24-.51.29-1.08.6-1.66.52-.64-.1-1.1-.64-1.61-1.05s-1.28-.7-1.77-.27c-.43.37-.37,1.04-.27,1.6.18,1.02.49,2.2,1.45,2.58.38.15.8.14,1.2.11,1.67-.12,3.55-1.24,5.14-1.15,1.84.1,1.05,2.54.97,3.84Z" fill="none" stroke="#000" stroke-miterlimit="10" stroke-width=".71"/><path d="M31.03,7.91c-1.78-.94-3.66-1.69-5.6-2.24-.28-.08-.58-.16-.86-.09s-.54.33-.5.62c.03.22.22.38.39.52,1.12.9,2.24,1.79,3.36,2.69" fill="none" stroke="#000" stroke-miterlimit="10" stroke-width=".71"/><path d="M43.59,38.41c.18-.33.22-.72.26-1.1.12-1.41.2-2.82.23-4.24.02-.9-.05-1.95-.78-2.48-.49-.35-1.15-.37-1.67-.67-.72-.42-1.03-1.27-1.34-2.03-.64-1.54-1.53-2.97-2.63-4.22-.38-.43-.8-.85-1.34-1.06-.44-.17-.92-.17-1.4-.18-9.34-.07-18.68-.13-28.01-.2-.21,0-.44,0-.63.09-.41.19-.56.69-.66,1.13-1.08,4.6-2.16,9.34-1.45,14.02.07.45.17.94.51,1.24.26.23.62.32.96.39,1.15.22,2.33.29,3.5.21.13,1.52,1.39,2.87,2.89,3.11s3.12-.64,3.72-2.04c.1-.23.19-.48.4-.6.15-.09.33-.09.51-.09,5.61-.03,11.21-.05,16.82-.08.56,1.45,2.08,2.46,3.64,2.44,1.79-.03,2.83-1.59,3.16-2.5.32-.87,2.67.07,3.33-1.11Z" fill="none" stroke="#000" stroke-miterlimit="10" stroke-width=".71"/><path d="M7.53,28.51c.4.46,1.08.56,1.69.62,1.03.11,2.06.21,3.09.32.31.03.64.06.92-.08.56-.29.58-1.06.54-1.68-.08-1.05-.16-2.1-.24-3.15,0-.12-.02-.25-.08-.36-.13-.23-.44-.27-.7-.28-1.28-.08-4.38-.89-5.21.3-.58.82-.62,3.56,0,4.32Z" fill="none" stroke="#000" stroke-miterlimit="10" stroke-width=".71"/><path d="M17.31,24.1c-.28,0-.59,0-.82.19-.24.21-.31.59-.34.93-.07.66-.08,1.33-.03,2,.05.7.22,1.48.75,1.83.3.2.67.22,1.02.23.75.03,1.49.06,2.24.09.83.03,1.68.07,2.48-.18.1-.03.2-.07.27-.15.08-.1.11-.25.12-.39.13-1.2.04-2.43-.25-3.59-.05-.18-.1-.37-.23-.5-.13-.14-.32-.17-.49-.2-1.55-.26-3.16-.21-4.72-.26Z" fill="none" stroke="#000" stroke-miterlimit="10" stroke-width=".71"/><path d="M26.69,24.41c-.43.03-.94.09-1.15.47-.11.2-.11.43-.11.65,0,.63,0,1.27,0,1.9,0,.36,0,.75.2,1.05.28.44.86.56,1.38.63,1.15.14,2.31.2,3.46.17.18,0,.36-.01.53-.09.35-.17.46-.61.52-.99.13-.84.21-1.69.22-2.54.04-2.13-3.82-1.32-5.05-1.25Z" fill="none" stroke="#000" stroke-miterlimit="10" stroke-width=".71"/><path d="M34.08,29.01c.01.15.03.31.14.41.09.08.22.09.34.1,1.2.08,2.41.1,3.61.07.14,0,.28,0,.4-.07.22-.11.32-.38.34-.62.07-1.09-.99-1.79-1.49-2.64-.48-.83-.55-1.66-1.63-1.87-2.75-.54-1.82,3.14-1.71,4.63Z" fill="none" stroke="#000" stroke-miterlimit="10" stroke-width=".71"/><path d="M9.09,39.07c.22-1.8,1.66-3.18,3.29-3.25,2.1-.09,3.76,1.17,3.66,3.83" fill="none" stroke="#000" stroke-linecap="round" stroke-miterlimit="10" stroke-width=".71"/><path d="M33.39,39.41c-.06-1.89,1.42-3.49,3.25-3.59,1.9-.1,3.58,1.44,3.63,3.4" fill="none" stroke="#000" stroke-linecap="round" stroke-miterlimit="10" stroke-width=".71"/><path d="M23.62,31.02c-.09.21-.05.47.11.63s.41.23.62.16c.04-.02.09-.04.13-.06.11-.08.18-.22.22-.35.05-.19.05-.42-.09-.56-.29-.28-.82-.18-.98.18Z" fill="none" stroke="#000" stroke-linecap="round" stroke-miterlimit="10" stroke-width=".71"/><path d="M21.75,33.98l.35-1.07c.07-.2.15-.42.33-.54.16-.09.35-.09.53-.08.22.01.43.02.65.03.06,0,.13.01.17.06.04.06.02.13,0,.2-.18.52-.36,1.04-.54,1.56-.7-.04-1.41.3-1.81.87s-.48,1.36-.2,2,.91,1.12,1.6,1.22c.34.05.68,0,1.02-.04.18-.03.37-.06.54-.15.48-.25.65-.84.76-1.37.04-.16.07-.33.07-.5,0-.27-.09-.53-.23-.77-.37-.66-1.04-1.14-1.78-1.27" fill="none" stroke="#000" stroke-linecap="round" stroke-miterlimit="10" stroke-width=".71"/><path d="M24.83,35.09c.32-.06.64-.05.96.02.07.02.15.04.19.09.05.06.06.16.06.24.02,1.02-.02,1.23-.21,2.23" fill="none" stroke="#000" stroke-linecap="round" stroke-miterlimit="10" stroke-width=".71"/></svg>