<?xml version="1.0" encoding="UTF-8"?><svg id="Layer_1" xmlns="http://www.w3.org/2000/svg" viewBox="0 0 48 48"><path d="M24.42,12.35c-2.85,0-5.7.03-8.55.06-2.55.03-5.09.05-7.64.08-.22,0-.45,0-.63.13-.34.22-.35.75-.14,1.09s.58.56.92.78c2.07,1.3,3.76,3.09,5.43,4.87.58.62,1.17,1.24,1.63,1.96.57.89.93,1.9,1.49,2.79.35.54.76,1.04,1.21,1.51.78.83,1.66,1.6,2.71,2.04s2.3.5,3.3-.05c.63-.35,1.11-.92,1.57-1.47,1.83-2.22,3.57-4.5,5.22-6.85,1.05-1.49,2.09-3.04,3.59-4.07.57-.4,2.06-1.19,1.64-2.11-.33-.72-1.8-.64-2.43-.66-3.1-.1-6.21-.08-9.31-.08Z" fill="none" stroke="#000" stroke-miterlimit="10" stroke-width=".71"/><path d="M22.42,27.72c.11,1.88.22,3.76.33,5.64.14,2.43.28,4.88-.03,7.29" fill="none" stroke="#000" stroke-miterlimit="10" stroke-width=".71"/><path d="M16.12,40.7c4.25.02,8.5.04,12.76.05" fill="none" stroke="#000" stroke-linecap="round" stroke-miterlimit="10" stroke-width=".71"/><path d="M31.9,12.35c.44-1.79.22-.85,1-2.51.08-.17.23-.7.4-.77.21-.09.39-.19.59-.11,2.16.88,3.83,1.38,6.07,1.89.11.02.22.03.32.01.4-.08.5-.67.26-1s-.66-.47-1.05-.59l-6.68-2c-.28-.08-.58.08-.67.36l-1.42,4.73" fill="none" stroke="#000" stroke-miterlimit="10" stroke-width=".71"/></svg>