<?xml version="1.0" encoding="UTF-8"?><svg id="Layer_1" xmlns="http://www.w3.org/2000/svg" viewBox="0 0 48 48"><path d="M5.66,25c-.38.98-.51,2.04-.54,3.09-.03.91.03,1.85.46,2.64.38.69,1.02,1.2,1.68,1.65,2.03,1.38,4.57,2.33,6.94,1.67.78,1.35,1.58,2.72,2.74,3.75,2.27,2.02,5.5,2.44,8.51,2.76,2.53.27,5.08.52,7.6.2s5.04-1.28,6.79-3.11c1.54-1.61,2.38-3.77,2.75-5.96.37-2.19.29-4.43.19-6.65-.1-2.23-.21-4.46-.32-6.7-9.71.23-19.43.28-29.15.13-.23.85-.21,1.7-.21,2.56-3.08.29-6.13.52-7.46,3.97Z" fill="none" stroke="#000" stroke-miterlimit="10" stroke-width=".71"/><path d="M8.83,23.75c-.43.21-.85.48-1.14.87-.62.81-.58,1.94-.5,2.96.09,1.08.23,2.26,1,3.02.24.23.52.41.81.57,1.2.66,2.57,1,3.94,1,.18,0,.38-.02.49-.15.06-.07.08-.17.1-.26.47-2.28-.15-4.56-.2-6.84-.03-1.36.22-1.61-1.23-1.78-1.1-.13-2.29.14-3.27.62Z" fill="none" stroke="#000" stroke-miterlimit="10" stroke-width=".71"/><path d="M20.69,16.71c-.7-.26-1.1-1.12-.87-1.82.22-.64.84-1.05,1.28-1.57.65-.78.87-1.86.74-2.87-.13-1.01-.57-1.95-1.13-2.8" fill="none" stroke="#000" stroke-miterlimit="10" stroke-width=".71"/><path d="M27.46,16.92c-.22-.82-.43-1.72-.07-2.49.19-.4.51-.72.68-1.12.38-.9-.08-1.92-.45-2.83s-.59-2.09.12-2.76" fill="none" stroke="#000" stroke-miterlimit="10" stroke-width=".71"/><path d="M33.42,16.93c-.41-1.57,1.07-3.06,1.07-4.68,0-.91-.47-1.74-.77-2.59s-.41-1.91.2-2.58" fill="none" stroke="#000" stroke-miterlimit="10" stroke-width=".71"/></svg>