<?xml version="1.0" encoding="UTF-8"?><svg id="Layer_1" xmlns="http://www.w3.org/2000/svg" viewBox="0 0 48 48"><path d="M10.24,14.97c-.31,0-.56.24-.56.55l-.15,15.87c-.03,3.38-.06,6.76.19,10.13.02.28.26.51.54.52,9.23.36,18.48.35,27.71-.04.31-.01.55-.27.53-.58-.12-3.27-.48-19.89-.5-21.55-.01-1.07.45-3.63-.23-4.54s-3.32-.38-4.39-.36c-3.68.05-7.36.08-11.04.08-4.03,0-8.07-.02-12.1-.08Z" fill="none" stroke="#000" stroke-linecap="round" stroke-miterlimit="10" stroke-width=".71"/><path d="M18.54,24.11c-.19.44-.1.99.22,1.35s.87.49,1.32.33c.09-.03.19-.08.27-.14.24-.17.39-.46.47-.75.12-.4.11-.89-.19-1.18-.61-.59-1.75-.39-2.09.39Z" fill="none" stroke="#000" stroke-linecap="round" stroke-miterlimit="10" stroke-width=".71"/><path d="M14.56,30.4l.75-2.27c.14-.43.31-.9.7-1.14.33-.2.75-.19,1.13-.17.46.02.92.05,1.37.07.13,0,.28.02.36.13.09.12.04.29,0,.42-.39,1.11-.77,2.22-1.16,3.32-1.49-.09-3,.63-3.86,1.85s-1.02,2.89-.43,4.26,1.93,2.38,3.41,2.59c.72.1,1.45.02,2.17-.09.39-.06.79-.14,1.14-.32,1.02-.53,1.37-1.79,1.63-2.91.08-.35.16-.7.16-1.05,0-.57-.2-1.13-.48-1.63-.78-1.4-2.21-2.41-3.79-2.69" fill="none" stroke="#000" stroke-linecap="round" stroke-miterlimit="10" stroke-width=".71"/><path d="M21.09,32.75c.67-.13,1.37-.11,2.04.04.15.04.31.08.41.2.12.14.13.33.13.51.04,2.16-.03,2.61-.44,4.73" fill="none" stroke="#000" stroke-linecap="round" stroke-miterlimit="10" stroke-width=".71"/><path d="M31.74,19.27c-.33-.3-.89-.24-1.22.06s-.47.76-.48,1.21c0,.36.06.73.27,1.02.35.49,1.08.65,1.62.38s.84-.93.73-1.52-.6-1.09-1.19-1.23" fill="none" stroke="#000" stroke-linecap="round" stroke-miterlimit="10" stroke-width=".71"/><path d="M28.92,25.18l-.12,4.3c-.01.37-.02.75-.2,1.07s-.56.56-.91.45c-.46-.15-.55-.76-.55-1.24-.02-1.69-.02-3.39,0-5.08,0-.25,0-.5.12-.72.25-.47.88-.56,1.41-.58,1.79-.07,3.59-.03,5.37.11.13.01.27.02.38.1.23.15.26.47.27.74.04,2.14.03,4.28-.02,6.42-.21.33-.76.24-1-.07s-.26-.73-.28-1.12c-.04-1.31-.08-2.63-.13-3.94" fill="none" stroke="#000" stroke-linecap="round" stroke-miterlimit="10" stroke-width=".71"/><path d="M29.01,31.14l.31,7.96c.01.36.08.8.42.93.3.11.63-.11.76-.4s.1-.62.08-.94c-.16-2.18-.14-4.37.07-6.55.41-.32,1.06-.05,1.33.39s.27,1,.25,1.52c-.03,1.58-.07,3.15-.1,4.73-.01.5.1,1.14.58,1.23.29.05.58-.16.71-.43s.14-.58.15-.87c.05-2.38-.01-4.76-.18-7.14" fill="none" stroke="#000" stroke-linecap="round" stroke-miterlimit="10" stroke-width=".71"/><path d="M18.21,12.73c.06-2.06.11-4.12.17-6.17" fill="none" stroke="#000" stroke-linecap="round" stroke-miterlimit="10" stroke-width=".71"/><path d="M14.72,9.73l2.17-2.15c.37-.37.74-.74,1.04-1.16.14-.2.41-.26.6-.11,1.26.96,2.5,2.03,3.05,3.5" fill="none" stroke="#000" stroke-linecap="round" stroke-miterlimit="10" stroke-width=".71"/><path d="M29.88,5.69c.31,1.75.39,3.54.22,5.3" fill="none" stroke="#000" stroke-linecap="round" stroke-miterlimit="10" stroke-width=".71"/><path d="M26.42,8.49l3.45,2.64c.11.08.22.17.35.18.23.03.42-.15.57-.32.68-.74,1.3-1.54,1.86-2.38" fill="none" stroke="#000" stroke-linecap="round" stroke-miterlimit="10" stroke-width=".71"/></svg>