<?xml version="1.0" encoding="UTF-8"?><svg id="Layer_1" xmlns="http://www.w3.org/2000/svg" viewBox="0 0 48 48"><path d="M27.96,17.18c-.48.66-.96,1.34-1.61,1.84-.34.26-.71.48-1.04.76-.39.34-.69.76-1.02,1.15-2.15,2.64-5.24,4.41-7.32,7.11" fill="none" stroke="#000" stroke-miterlimit="10" stroke-width=".71"/><path d="M30.58,19.98c-3.4,2.12-4.75,6.57-8.1,8.77-.91.6-1.98,1.04-2.58,1.94" fill="none" stroke="#000" stroke-miterlimit="10" stroke-width=".71"/><path d="M29.15,8.57c-.34,1.05-.03,2.24.6,3.15.89,1.3,2.33,2.1,3.5,3.15,1.76,1.59,3.17,3.92,5.52,4.27.49.07,1.02.04,1.46-.21.89-.52,1.06-1.8.65-2.75-1.01-2.36-4.02-4.05-5.69-6.01-1.27-1.49-4.7-5.77-6.04-1.6Z" fill="none" stroke="#000" stroke-miterlimit="10" stroke-width=".71"/><path d="M10.56,29.27c-.78-.4-1.76-.42-2.52.02s-1.24,1.35-1.1,2.21c.13.79.72,1.42,1.28,2,1.86,1.92,3.72,3.84,5.58,5.76.68.7,1.39,1.42,2.3,1.77.91.35,2.08.2,2.65-.59.56-.78.34-1.89-.21-2.68s-1.36-1.33-2.08-1.95c-2.28-1.94-3.08-5.11-5.89-6.54Z" fill="none" stroke="#000" stroke-miterlimit="10" stroke-width=".71"/><path d="M28.71,9.57c-.8-.68-2-.86-2.97-.45s-1.67,1.4-1.73,2.46c-.1,1.66,1.19,3.03,2.4,4.17,2.6,2.46,5.22,4.9,7.86,7.32.31.28.62.57.99.77,1.19.66,2.87.23,3.6-.92s.38-2.86-.74-3.64" fill="none" stroke="#000" stroke-miterlimit="10" stroke-width=".71"/><path d="M9.49,28.62c-.42-.94-.84-1.99-.5-2.96.53-1.54,2.7-1.87,4.15-1.12s2.39,2.16,3.46,3.39c1.72,1.98,3.88,3.54,5.62,5.5.62.69,1.19,1.46,1.44,2.35.25.89.12,1.94-.53,2.6-.56.56-1.38.76-2.15.93-.79.17-1.78.27-2.23-.39" fill="none" stroke="#000" stroke-miterlimit="10" stroke-width=".71"/><path d="M34.85,9.06c.49-.65,1.48-.72,2.22-.38s1.28.98,1.79,1.62c.33.41.67.85.8,1.36s-.02,1.14-.49,1.4" fill="none" stroke="#000" stroke-miterlimit="10" stroke-width=".71"/><path d="M9.13,34.82c-.47.44-.49,1.16-.48,1.8,0,.23,0,.46.07.68.1.37.35.67.61.95.58.6,1.29,1.11,2.1,1.32s1.73.08,2.38-.45" fill="none" stroke="#000" stroke-miterlimit="10" stroke-width=".71"/></svg>