<?xml version="1.0" encoding="UTF-8"?><svg id="Layer_1" xmlns="http://www.w3.org/2000/svg" viewBox="0 0 48 48"><path d="M3.95,10.98c.28,8.68.31,17.36.08,26.04" fill="none" stroke="#000" stroke-linecap="round" stroke-miterlimit="10" stroke-width=".71"/><path d="M4.12,17.73c2.34,0,4.49,0,6.83,0,.4,0,.82,0,1.19.17.48.21.8.68.97,1.17s.2,1.02.23,1.55c.04.65.05.93.09,1.59" fill="none" stroke="#000" stroke-linecap="round" stroke-miterlimit="10" stroke-width=".71"/><path d="M4.18,27.3c13.41-.11,26.46-.23,39.88-.34" fill="none" stroke="#000" stroke-miterlimit="10" stroke-width=".71"/><path d="M13.44,29.88c-.02,1.88-.16,5.03-.22,6.91" fill="none" stroke="#000" stroke-linecap="round" stroke-miterlimit="10" stroke-width=".71"/><path d="M12.14,35.32l.85,1.28c.06.09.13.19.24.19.09,0,.16-.07.22-.13.38-.38.76-.77,1.14-1.15" fill="none" stroke="#000" stroke-linecap="round" stroke-miterlimit="10" stroke-width=".71"/><path d="M12.24,31.03l.72-.84c.13-.15.29-.31.48-.31.18,0,.32.15.43.29.27.32.55.63.82.95" fill="none" stroke="#000" stroke-linecap="round" stroke-miterlimit="10" stroke-width=".71"/><path d="M18.17,22.36c0,1.5,0,3.31,0,4.81" fill="none" stroke="#000" stroke-linecap="round" stroke-miterlimit="10" stroke-width=".71"/><path d="M4.19,22.35l37.38-.22c.64,0,1.32,0,1.88.31.17.09.34.22.42.4.08.16.08.35.08.54,0,4.53-.01,9.06-.02,13.6" fill="none" stroke="#000" stroke-linecap="round" stroke-miterlimit="10" stroke-width=".71"/></svg>