<?xml version="1.0" encoding="UTF-8"?><svg id="Layer_1" xmlns="http://www.w3.org/2000/svg" viewBox="0 0 48 48"><path d="M5.7,9.85c.02-.65.07-1.37.55-1.82.41-.38,1.01-.45,1.57-.48,10.14-.68,20.33.9,30.48.3,1.21-.07,2.59-.11,3.42.78.77.83.7,2.11.61,3.25-.64,8.64.99,17.36.05,25.97-.1.95-.32,2.03-1.15,2.5-.47.27-1.03.27-1.57.27-10.42,0-20.84,0-31.26,0-.62,0-1.3-.02-1.79-.41-1.08-.87-.81-3.28-.85-4.51-.07-2.08-.13-4.16-.17-6.24-.08-4.16-.09-8.33-.04-12.49.03-2.37.08-4.75.16-7.12Z" fill="none" stroke="#000" stroke-miterlimit="10" stroke-width=".71"/><path d="M17.85,33.92c0-5.55-.02-11.11-.2-16.66-.02-.65-.05-1.31.07-1.95.03-.16.07-.33.18-.44.16-.17.43-.19.67-.2,2.03-.08,4.05-.09,6.08-.05.94.02,1.9.06,2.75.47,1.71.83,2.42,2.97,2.25,4.86-.04.47-.14.96-.4,1.36-.27.41-.68.69-1.11.93-3.12,1.74-6.93,1.35-10.47.92" fill="none" stroke="#000" stroke-miterlimit="10" stroke-width=".71"/></svg>