<?xml version="1.0" encoding="UTF-8"?><svg id="Layer_1" xmlns="http://www.w3.org/2000/svg" viewBox="0 0 48 48"><path d="M21.4,7.87c-.41-.1-.85-.14-1.26-.01-.82.25-1.4,1.1-1.65,2.01s-.22,1.88-.19,2.84c.12,3.81.24,7.62.36,11.43,0,.07,0,.15.02.22.11.39.68.35.89.02s.17-.79.12-1.2c-.08-.67-.16-1.34-.24-2.01-.02-.19-.04-.4.05-.56.13-.22.4-.24.63-.24,1.9,0,3.8-.01,5.7-.02.29,0,.64.03.79.32.08.16.06.36.05.55-.07.7-.14,1.41-.2,2.11-.04.42-.08.88.1,1.25s.67.58.95.29c.19-.2.2-.53.2-.82-.05-4.53-.1-9.07-.15-13.6,0-.19,0-.4.1-.56.08-.13.22-.2.36-.26.79-.38,1.82-.7,2.4.01.25.31.34.74.56,1.08s.72.52.95.18c.12-.18.1-.43.06-.64-.37-1.87-2.42-3.07-3.99-2.33-.22.1-.44.24-.6.44-.2.23-.32.54-.42.84-.49,1.45-.67,3.02-.54,4.56-2.11.03-4.21,0-6.32-.09-.15,0-.32-.02-.44-.12-.17-.14-.21-.41-.23-.65-.06-.67-.13-1.36,0-2.03.18-1.02.88-1.9,1.86-1.74.83.13.88.77,1.35,1.38.87,1.14,1.3.06.85-.98-.39-.88-1.24-1.48-2.08-1.69Z" fill="none" stroke="#000" stroke-miterlimit="10" stroke-width=".71"/><path d="M19.53,18.89c2.16-.12,4.33-.23,6.5-.15.12,0,.25,0,.34-.09.07-.07.09-.19.1-.29.13-1.07.14-2.17.01-3.24-1.79-.02-3.59-.04-5.38-.07-.97-.01-1.41-.3-1.5.85-.08.99-.05,2-.07,2.99Z" fill="none" stroke="#000" stroke-miterlimit="10" stroke-width=".71"/><path d="M2.32,24.93c.97-.72,2.14-1.02,3.29-1.21,5.53-.95,10.28.25,15.79,1.31,1.66.32,4.75.3,6.39-.1.92-.23,1.3-.53,2.2-.86,1.69-.61,3.47-.78,5.24-.85,2.23-.09,4.54,0,6.55,1.06,1.23.65,2.48,1.67,3.81,1.33" fill="none" stroke="#000" stroke-miterlimit="10" stroke-width=".71"/><path d="M2.43,28.91c.97-.93,2.31-1.24,3.58-1.16s2.5.5,3.73.89c4.67,1.48,9.65,2.46,14.36,1.16,1.3-.36,2.56-.89,3.87-1.21,6.01-1.47,11.57,1.61,17.71,1.44" fill="none" stroke="#000" stroke-miterlimit="10" stroke-width=".71"/><path d="M2.51,34.14c1.44-.72,3.08-.75,4.66-.69,4.61.18,9.25.97,13.81.21,1.35-.23,2.69-.59,4.04-.76,3.41-.43,6.83.38,10.21,1,3.38.62,7.16.87,10.44-.24" fill="none" stroke="#000" stroke-miterlimit="10" stroke-width=".71"/><path d="M2.34,38.42c2.7-1.07,5.68-1.23,8.46-.44,1.98.56,3.85,1.59,5.86,2,1.51.31,3.06.27,4.6.22,1.47-.04,2.96-.09,4.39-.5,1.19-.34,2.31-.92,3.5-1.27,1.53-.45,3.12-.49,4.69-.53.91-.02,1.84-.05,2.72.26.74.26,1.4.75,2.1,1.12,2.16,1.14,4.67,1.16,7.02.69" fill="none" stroke="#000" stroke-miterlimit="10" stroke-width=".71"/></svg>