<?xml version="1.0" encoding="UTF-8"?><svg id="Layer_1" xmlns="http://www.w3.org/2000/svg" viewBox="0 0 48 48"><path d="M23.34,9.74c0-.44-.04-.97-.42-1.2-.39-.23-.93.03-1.15.43s-.21.88-.2,1.34c.05,1.55.1,3.1.15,4.65.02.58-.15,1.37-.73,1.37-.61,0-.76-.85-.7-1.46.13-1.29.26-2.57.39-3.86.05-.54.1-1.1-.14-1.58s-.9-.79-1.34-.48c-.4.28-.41.85-.38,1.34.09,1.4.18,2.79.27,4.19.04.59.06,1.23-.26,1.72s-1.14.69-1.49.21c.07-1.96.14-3.93.21-5.89.02-.47,0-1.03-.4-1.29-.42-.27-1.01,0-1.26.43s-.25.95-.24,1.45c.03,1.95.07,3.89.1,5.84.01.59.03,1.22.35,1.71.26.4.68.66,1.03.98,1.67,1.55,1.39,4.2,1.11,6.46-.49,3.96-.58,7.97-.27,11.96.05.63.14,1.32.61,1.75.82.73,2.21.06,2.65-.93s.26-2.14.19-3.23c-.1-1.64.07-3.28.06-4.92-.01-2.59-.48-5.15-.73-7.72-.07-.71-.06-1.55.5-1.98.86-.66,1.41-.62,1.83-1.76.26-.73.22-1.36.2-2.11-.04-2.46.02-4.93.04-7.4Z" fill="none" stroke="#000" stroke-miterlimit="10" stroke-width=".71"/><path d="M27.37,17.01c-.1.91-.09,1.84.14,2.72.33,1.23,1.09,2.3,1.41,3.53.29,1.11.21,2.27.13,3.42-.22,3.04-.43,6.08-.65,9.11-.07,1.02-.13,2.11.35,3.01s1.71,1.49,2.57.92c.58-.39.78-1.14.87-1.83.19-1.35.17-2.72.14-4.09-.08-4.67-.16-9.34-.24-14.01-.04-2.33-.07-4.67-.12-7-.04-1.7.23-6.54-1.33-4.34-1.15,1.63-3.28,6.51-3.28,8.56Z" fill="none" stroke="#000" stroke-miterlimit="10" stroke-width=".71"/></svg>