<?xml version="1.0" encoding="UTF-8"?><svg id="Layer_1" xmlns="http://www.w3.org/2000/svg" viewBox="0 0 48 48"><path d="M32.35,4.28c.65-1,2.02-1.16,3.21-1.23.87-.05,1.78-.09,2.59.25,1.65.68,2.33,2.63,2.65,4.39.57,3.11.64,6.28.7,9.44.19,9.59.37,19.18.56,28.77" fill="none" stroke="#000" stroke-linecap="round" stroke-miterlimit="10" stroke-width=".71"/><path d="M30.17,4.54c-.34-.12-.64-.31-.97-.45-1.14-.48-2.44-.32-3.66-.14-.28.04-.59.09-.79.3-.28.28-.23.77,0,1.1s.58.54.92.74c2.91,1.73,5.66,3.71,8.21,5.93.2.18.52.35.7.15.07-.08.09-.18.1-.28.18-1.34.04-2.72-.41-4-.15-.43-.35-.86-.68-1.17-.22-.2-.5-.34-.7-.56-.41-.44-.27-1.24-.72-1.52-.37-.23-1.48.07-1.99-.1Z" stroke="#000" stroke-linecap="round" stroke-miterlimit="10" stroke-width=".71"/><path d="M23.54,7.03l-1.31.99" fill="none" stroke="#000" stroke-linecap="round" stroke-miterlimit="10" stroke-width=".71"/><path d="M20.06,9.95l-1.29,1.14" fill="none" stroke="#000" stroke-linecap="round" stroke-miterlimit="10" stroke-width=".71"/><path d="M16.84,13.15c-.66.44-1.25.98-1.74,1.59" fill="none" stroke="#000" stroke-linecap="round" stroke-miterlimit="10" stroke-width=".71"/><path d="M24.42,9.44l-1.27,1.17" fill="none" stroke="#000" stroke-linecap="round" stroke-miterlimit="10" stroke-width=".71"/><path d="M21.11,12.8c-.3.42-.66.8-1.06,1.13" fill="none" stroke="#000" stroke-linecap="round" stroke-miterlimit="10" stroke-width=".71"/><path d="M17.73,17l-1.14,1.17" fill="none" stroke="#000" stroke-linecap="round" stroke-miterlimit="10" stroke-width=".71"/><path d="M26.72,9.82c-.35.34-.65.74-.88,1.17" fill="none" stroke="#000" stroke-linecap="round" stroke-miterlimit="10" stroke-width=".71"/><path d="M24.57,13.56l-1.05,1.14" fill="none" stroke="#000" stroke-linecap="round" stroke-miterlimit="10" stroke-width=".71"/><path d="M21.74,17.16l-1.07,1.25" fill="none" stroke="#000" stroke-linecap="round" stroke-miterlimit="10" stroke-width=".71"/><path d="M29.26,11.59l-1.12,1.31" fill="none" stroke="#000" stroke-linecap="round" stroke-miterlimit="10" stroke-width=".71"/><path d="M27.39,15.11l-.88,1.04" fill="none" stroke="#000" stroke-linecap="round" stroke-miterlimit="10" stroke-width=".71"/><path d="M25.07,18.82l-.64,1.16" fill="none" stroke="#000" stroke-linecap="round" stroke-miterlimit="10" stroke-width=".71"/><path d="M23.51,22.26l-.26.26" fill="none" stroke="#000" stroke-linecap="round" stroke-miterlimit="10" stroke-width=".71"/><path d="M30.73,14.07c-.13.51-.26,1.03-.4,1.54" fill="none" stroke="#000" stroke-linecap="round" stroke-miterlimit="10" stroke-width=".71"/><path d="M29.6,17.93l-.25,1.28" fill="none" stroke="#000" stroke-linecap="round" stroke-miterlimit="10" stroke-width=".71"/><path d="M28.67,22.41l-.38,1.93" fill="none" stroke="#000" stroke-linecap="round" stroke-miterlimit="10" stroke-width=".71"/><path d="M12.99,24.21c-.2,2.19-.15,4.39-.09,6.59.11,4.48.22,8.96.33,13.45" fill="none" stroke="#000" stroke-linecap="round" stroke-miterlimit="10" stroke-width=".71"/><path d="M12.84,34.01c3.55-.09,7.34.03,10.89.29.18.01.36.03.52.11.41.22.46.77.46,1.23,0,2.81,0,5.62,0,8.44" fill="none" stroke="#000" stroke-linecap="round" stroke-miterlimit="10" stroke-width=".71"/><path d="M13.07,38.13c3.7-.47,7.94-.5,11.64,0" fill="none" stroke="#000" stroke-linecap="round" stroke-miterlimit="10" stroke-width=".71"/></svg>