<?xml version="1.0" encoding="UTF-8"?><svg id="Layer_1" xmlns="http://www.w3.org/2000/svg" viewBox="0 0 48 48"><path d="M18.79,13.7c-.62.94-1.2,1.91-1.61,2.97-1.06,2.71-.96,5.76-.41,8.62s1.53,5.62,2.2,8.46c.35,1.46.63,2.98,1.43,4.25s2.29,2.23,3.74,1.89c1.09-.26,1.9-1.17,2.54-2.11,2.58-3.8,3.4-8.5,4.13-13.05.28-1.72.55-3.45.6-5.19.03-.97-.02-1.94-.27-2.88-.49-1.84-1.71-3.37-2.97-4.79-.82-.92-1.66-1.82-2.51-2.7-.93-.97-1.38-1.68-2.53-.67-1.67,1.47-3.11,3.35-4.35,5.2Z" fill="none" stroke="#000" stroke-miterlimit="10" stroke-width=".71"/><path d="M16.44,18.62c-4.06-2.15-8.69-3.2-13.27-3.02-.3.01-.54.25-.56.54-.32,3.98-.02,8.05,1.36,11.8,1.44,3.9,4.15,7.43,7.84,9.36,1.91,1,4.01,1.55,6.12,1.95,3.46.67,7.02.98,10.52.52,3.5-.46,6.93-1.72,9.67-3.95,2.89-2.35,4.88-5.68,6.01-9.23,1.07-3.36,1.42-6.92,1.4-10.45,0-.32-.27-.58-.59-.57-4.81.12-9.56.23-13.53,2.9" fill="none" stroke="#000" stroke-miterlimit="10" stroke-width=".71"/></svg>