<?xml version="1.0" encoding="UTF-8"?><svg id="Layer_1" xmlns="http://www.w3.org/2000/svg" viewBox="0 0 48 48"><path d="M24.84,8.01c6.33.17,12.66.34,18.99.51.3,10.44.15,20.89-.43,31.31-.02.28-.04.57-.21.79-.27.35-.78.37-1.23.36-4.32-.11-8.65-.12-12.96-.34-4.93-.25-3.89-2.32-3.72-6.8.08-2.2.43-25.82-.44-25.83Z" fill="none" stroke="#000" stroke-miterlimit="10" stroke-width=".71"/><path d="M29.53,24.05c2.03.2,4.07.24,6.11.12" fill="none" stroke="#000" stroke-miterlimit="10" stroke-width=".71"/><path d="M33.26,21.52c.83.6,1.67,1.19,2.5,1.79.18.13.37.27.41.49.06.29-.19.55-.41.74-.71.62-1.42,1.24-2.14,1.86" fill="none" stroke="#000" stroke-miterlimit="10" stroke-width=".71"/><path d="M12.8,17.68c-.29.66-.15,1.48.34,2.01s1.3.73,1.98.49c.14-.05.28-.12.4-.2.36-.26.58-.68.7-1.11.17-.6.16-1.33-.29-1.76-.91-.89-2.61-.58-3.12.58Z" fill="none" stroke="#000" stroke-linecap="round" stroke-miterlimit="10" stroke-width=".71"/><path d="M6.87,27.08c.37-1.13.75-2.26,1.12-3.39.21-.65.47-1.35,1.05-1.7.5-.3,1.11-.28,1.69-.25.68.04,1.37.07,2.05.11.2.01.42.03.54.19.13.18.06.43,0,.63-.58,1.65-1.15,3.31-1.73,4.96-2.22-.14-4.48.94-5.76,2.76s-1.53,4.31-.64,6.35c.89,2.04,2.88,3.55,5.09,3.86,1.07.15,2.17.03,3.24-.14.59-.09,1.18-.2,1.71-.48,1.52-.79,2.05-2.67,2.43-4.34.12-.52.24-1.04.24-1.57,0-.85-.3-1.69-.72-2.43-1.17-2.09-3.3-3.61-5.66-4.02" fill="none" stroke="#000" stroke-linecap="round" stroke-miterlimit="10" stroke-width=".71"/><path d="M16.61,30.59c1-.19,2.05-.17,3.04.06.23.05.46.12.61.3.17.2.19.49.19.76.07,3.22-.05,3.9-.66,7.06" fill="none" stroke="#000" stroke-linecap="round" stroke-miterlimit="10" stroke-width=".71"/><path d="M28.75,40.47c-8.48.23-16.96.27-25.44.12" fill="none" stroke="#000" stroke-linecap="round" stroke-miterlimit="10" stroke-width=".71"/></svg>