<?xml version="1.0" encoding="UTF-8"?><svg id="Layer_1" xmlns="http://www.w3.org/2000/svg" viewBox="0 0 48 48"><path d="M23.61,36.41c-.73.02-1.27,1.05-.94,1.79s1.39.84,1.83.18.06-1.79-.65-1.95" fill="none" stroke="#000" stroke-linecap="round" stroke-miterlimit="10" stroke-width=".71"/><path d="M18.14,33.45c1.32-2.1,2.94-3.46,5.33-3.4s4.91,1.47,5.72,4.02" fill="none" stroke="#000" stroke-linecap="round" stroke-miterlimit="10" stroke-width=".71"/><path d="M13.28,27.89c2.14-2.86,4.15-3.88,6.7-4.52,2.5-.63,5.19-.5,7.86.24,2.49.69,4.82,1.85,6.14,4.34" fill="none" stroke="#000" stroke-linecap="round" stroke-miterlimit="10" stroke-width=".71"/><path d="M9.52,22.59c4.11-4.94,7.52-6.14,12.42-6.38,2.82-.14,6.94.32,9.61,1.38,2.67,1.06,4.39,2.55,6.9,5.37" fill="none" stroke="#000" stroke-linecap="round" stroke-miterlimit="10" stroke-width=".71"/><path d="M6.03,18.02c2.23-2.83,4.58-4.78,6.85-6.04,2.12-1.17,3.27-1.54,5.27-2.1,8.16-2.28,17.16,1.23,23.83,7.04" fill="none" stroke="#000" stroke-linecap="round" stroke-miterlimit="10" stroke-width=".71"/></svg>