<?xml version="1.0" encoding="UTF-8"?><svg id="Layer_2" xmlns="http://www.w3.org/2000/svg" viewBox="0 0 825 315"><circle cx="110.56" cy="29.74" r="18.18" fill="none" stroke="#400d0f" stroke-miterlimit="10" stroke-width="12.91"/><path d="M33.74,127.26l12.82-37.68c.03-.13.06-.25.1-.37.66-1.84,6.32-16.37,19.41-16.16l24.28.37c4.53.07,7.63,4.6,6.06,8.85l-17.44,47.09c-.42,1.12-1.5,1.86-2.7,1.84-7.67-.09-35.96,1.68-56.13,31.05-8.49,12.36-14.73,39.32-2.52,64.12,1.84,3.74,5.06,9.27,6.33,11.07l49.05,64.87c1.13,1.49,3.36,1.51,4.51.03l35.13-45.23c.05-.06,8-10.82,8.04-10.88,4.29-6.61,7.16-9.31,12.06-20.38,2.99-6.77,9.18-20.34,6.68-37.86-.01-.1-.12-.44-.14-.54-.44-2.77-9.38-50.81-62.47-56.28" fill="none" stroke="#400d0f" stroke-linecap="round" stroke-miterlimit="10" stroke-width="12.91"/><path d="M140.82,193.94h23.05s15.58-.21,14.91,14.51c-.67,14.72-8.43,81.73-8.43,81.73" fill="none" stroke="#400d0f" stroke-linecap="round" stroke-miterlimit="10" stroke-width="12.91"/><circle cx="75.08" cy="193.94" r="24.56" fill="none" stroke="#cf171e" stroke-miterlimit="10" stroke-width="12.91"/><path d="M212.41,57.78h13.58c2.89,25.25,8.9,52.06,14.31,72.5h.24c6.25-19.96,13.46-47.37,17.07-72.5h12.86c3.73,25.13,10.82,52.54,17.07,72.5h.24c5.41-20.44,11.54-47.25,14.43-72.5h12.86c-.24,15.99-12.38,71.77-21.16,88.48h-11.78c-6.73-13.83-14.43-41-18.03-62.28h-.36c-3.73,21.28-11.42,48.45-18.15,62.28h-12.14c-8.66-16.71-20.68-72.5-21.04-88.48Z" fill="#400d0f"/><path d="M328.67,57.78h12.74v27.29c4.57-3.49,11.9-6.01,18.39-6.01,15.27,0,22.36,8.54,22.36,26.33v40.88h-12.74v-39.55c0-11.66-3.73-16.59-12.5-16.59-5.41,0-11.3,2.04-15.51,5.41v50.73h-12.74V57.78Z" fill="#400d0f"/><path d="M397.8,114.16c0-22.96,10.7-35.11,30.42-35.11,15.27,0,24.77,7.57,24.77,19.84,0,10.7-7.21,17.31-22.12,18.39l-19.84,1.44c.84,12.74,6.73,17.67,18.88,17.67,6.61,0,12.86-1.44,20.32-4.81v11.78c-5.05,2.64-13.95,4.21-21.52,4.21-20.68,0-30.9-10.94-30.9-33.42ZM426.41,108.51c9.38-.72,13.95-3.49,13.95-9.62s-4.57-9.74-12.26-9.74c-11.42,0-16.83,7.69-17.19,20.44l15.51-1.08Z" fill="#400d0f"/><path d="M464.64,114.16c0-22.96,10.7-35.11,30.42-35.11,15.27,0,24.77,7.57,24.77,19.84,0,10.7-7.21,17.31-22.12,18.39l-19.84,1.44c.84,12.74,6.73,17.67,18.88,17.67,6.61,0,12.86-1.44,20.32-4.81v11.78c-5.05,2.64-13.95,4.21-21.52,4.21-20.68,0-30.9-10.94-30.9-33.42ZM493.26,108.51c9.38-.72,13.95-3.49,13.95-9.62s-4.57-9.74-12.26-9.74c-11.42,0-16.83,7.69-17.19,20.44l15.51-1.08Z" fill="#400d0f"/><path d="M534.73,129.31V57.78h12.74v70.69c0,5.65,2.04,7.81,6.97,7.81,1.44,0,3.73-.24,5.29-.72v10.34c-3.25.96-6.37,1.2-8.42,1.2-11.42,0-16.59-5.53-16.59-17.79Z" fill="#400d0f"/><path d="M567.67,128.59c0-14.67,11.78-20.68,40.88-20.8v-1.92c0-10.94-5.05-15.75-15.75-15.75-5.17,0-10.58,1.2-17.79,4.09l-3.01-10.46c6.01-3,15.51-4.69,22.96-4.69,17.19,0,26.33,8.9,26.33,26.09v41.12h-9.62l-1.92-5.77c-4.93,4.45-12.38,7.09-20.08,7.09-13.95,0-22-6.97-22-19ZM608.55,131.84v-14.91c-20.44.24-28.13,3.49-28.13,11.66,0,5.89,4.09,8.9,11.3,8.9,6.49,0,12.74-2.28,16.83-5.65Z" fill="#400d0f"/><path d="M649.91,142.3l-1.68,3.97h-8.78V57.78h12.74v27.41c4.09-3.73,10.82-6.13,17.91-6.13,16.35,0,25.37,11.42,25.37,32.7,0,23.2-10.58,35.83-28.97,35.83-6.85,0-12.5-1.92-16.59-5.29ZM682.37,111.88c0-14.79-4.81-21.76-15.03-21.76-5.53,0-11.42,2.16-15.15,5.29v37.63c3.37,2.28,7.21,3.37,12.02,3.37,12.26,0,18.15-8.05,18.15-24.53Z" fill="#400d0f"/><path d="M711.7,129.31V57.78h12.74v70.69c0,5.65,2.04,7.81,6.97,7.81,1.44,0,3.73-.24,5.29-.72v10.34c-3.25.96-6.37,1.2-8.42,1.2-11.42,0-16.59-5.53-16.59-17.79Z" fill="#400d0f"/><path d="M745.97,114.16c0-22.96,10.7-35.11,30.42-35.11,15.27,0,24.77,7.57,24.77,19.84,0,10.7-7.21,17.31-22.12,18.39l-19.84,1.44c.84,12.74,6.73,17.67,18.88,17.67,6.61,0,12.86-1.44,20.32-4.81v11.78c-5.05,2.64-13.95,4.21-21.52,4.21-20.68,0-30.9-10.94-30.9-33.42ZM774.58,108.51c9.38-.72,13.95-3.49,13.95-9.62s-4.57-9.74-12.26-9.74c-11.42,0-16.83,7.69-17.19,20.44l15.51-1.08Z" fill="#400d0f"/><path d="M222.39,190.68h13.1v37.87h37.51v-37.87h13.1v88.48h-13.1v-38.59h-37.51v38.59h-13.1v-88.48Z" fill="#400d0f"/><path d="M304.14,246.22c0-23.08,9.62-34.26,29.46-34.26s29.46,11.18,29.46,34.26-9.62,34.26-29.46,34.26-29.46-11.18-29.46-34.26ZM349.94,246.22c0-16.35-4.81-23.2-16.35-23.2s-16.35,6.85-16.35,23.2,4.81,23.08,16.35,23.08,16.35-6.73,16.35-23.08Z" fill="#400d0f"/><path d="M382.29,255.72v-31.62h-10.34v-10.94h10.34v-15.27l12.74-2.76v18.03h19.84v10.94h-19.84v30.78c0,9.14,1.92,13.95,10.22,13.95,3.73,0,7.21-1.08,9.62-1.92v11.18c-3.25,1.44-7.33,2.04-11.54,2.04-13.46,0-21.04-6.01-21.04-24.41Z" fill="#400d0f"/><path d="M425.45,247.07c0-22.96,10.7-35.11,30.42-35.11,15.27,0,24.77,7.57,24.77,19.84,0,10.7-7.21,17.31-22.12,18.39l-19.84,1.44c.84,12.74,6.73,17.67,18.88,17.67,6.61,0,12.86-1.44,20.32-4.81v11.78c-5.05,2.65-13.95,4.21-21.52,4.21-20.68,0-30.9-10.94-30.9-33.42ZM454.06,241.42c9.38-.72,13.95-3.49,13.95-9.62s-4.57-9.74-12.26-9.74c-11.42,0-16.83,7.69-17.19,20.44l15.51-1.08Z" fill="#400d0f"/><path d="M495.54,262.21v-71.53h12.74v70.69c0,5.65,2.04,7.81,6.97,7.81,1.44,0,3.73-.24,5.29-.72v10.34c-3.25.96-6.37,1.2-8.42,1.2-11.42,0-16.59-5.53-16.59-17.79Z" fill="#400d0f"/><path d="M528.36,276.4v-11.54c7.93,3.61,13.71,4.69,20.44,4.69,10.1,0,14.67-2.52,14.67-8.05,0-4.21-2.53-6.61-11.18-9.26l-6.49-2.04c-10.58-3.25-16.35-8.9-16.35-18.39,0-12.38,10.34-19.84,26.81-19.84,6.97,0,14.19,1.32,18.75,3.85l-2.88,10.58c-5.53-2.77-10.58-3.61-15.63-3.61-9.02,0-13.95,2.88-13.95,8.29,0,4.33,2.52,6.73,11.06,9.38l6.61,2.04c10.94,3.37,16.35,9.14,16.35,18.39,0,12.5-9.98,19.6-27.17,19.6-7.93,0-16.35-1.56-21.04-4.09Z" fill="#400d0f"/></svg>